<?xml version="1.0" encoding="UTF-8" standalone="no"?>
<svg width="1663px" height="2484px" viewBox="0 0 1663 2484" version="1.1" xmlns="http://www.w3.org/2000/svg" xmlns:xlink="http://www.w3.org/1999/xlink">
    <!-- Generator: Sketch 39.1 (31720) - http://www.bohemiancoding.com/sketch -->
    <title>Logo Penta</title>
    <desc>Created with Love.</desc>
    <defs></defs>
    <g id="Page-1" stroke="none" stroke-width="1" fill="none" fill-rule="evenodd">
        <g id="Group-6">
            <g id="Group-Copy-7" fill="#70B2EB">
                <ellipse id="Oval-Copy-256" cx="1656.25" cy="6.25" rx="6.25" ry="6.25"></ellipse>     
                <ellipse id="Oval-Copy-273" cx="1546.25" cy="6.25" rx="6.25" ry="6.25"></ellipse>
                <ellipse id="Oval-Copy-264" cx="1656.25" cy="886.25" rx="6.25" ry="6.25"></ellipse>
                <ellipse id="Oval-Copy-274" cx="1546.25" cy="886.25" rx="6.25" ry="6.25"></ellipse>
                <circle id="Oval-Copy-257" cx="1656.25" cy="116.25" r="6.25"></circle>
                <circle id="Oval-Copy-280" cx="1546.25" cy="116.25" r="6.25"></circle>
                <ellipse id="Oval-Copy-265" cx="1656.25" cy="996.25" rx="6.25" ry="6.25"></ellipse>
                <ellipse id="Oval-Copy-281" cx="1546.25" cy="996.25" rx="6.25" ry="6.25"></ellipse>
                <circle id="Oval-Copy-258" cx="1656.25" cy="226.25" r="6.25"></circle>
                <circle id="Oval-Copy-282" cx="1546.25" cy="226.25" r="6.25"></circle>
                <ellipse id="Oval-Copy-266" cx="1656.25" cy="1106.25" rx="6.25" ry="6.25"></ellipse>
                <ellipse id="Oval-Copy-283" cx="1546.25" cy="1106.25" rx="6.25" ry="6.25"></ellipse>
                <circle id="Oval-Copy-259" cx="1656.25" cy="336.25" r="6.25"></circle>
                <circle id="Oval-Copy-284" cx="1546.25" cy="336.25" r="6.25"></circle>
                <ellipse id="Oval-Copy-267" cx="1656.25" cy="1216.25" rx="6.25" ry="6.25"></ellipse>
                <ellipse id="Oval-Copy-285" cx="1546.25" cy="1216.25" rx="6.25" ry="6.25"></ellipse>
                <circle id="Oval-Copy-260" cx="1656.25" cy="446.25" r="6.25"></circle>
                <circle id="Oval-Copy-288" cx="1546.25" cy="446.25" r="6.25"></circle>
                <ellipse id="Oval-Copy-268" cx="1656.25" cy="1326.25" rx="6.25" ry="6.25"></ellipse>
                <ellipse id="Oval-Copy-289" cx="1546.25" cy="1326.25" rx="6.25" ry="6.25"></ellipse>
                <circle id="Oval-Copy-261" cx="1656.25" cy="556.25" r="6.25"></circle>
                <circle id="Oval-Copy-290" cx="1546.25" cy="556.25" r="6.25"></circle>
                <ellipse id="Oval-Copy-269" cx="1656.25" cy="1436.25" rx="6.25" ry="6.25"></ellipse>
                <ellipse id="Oval-Copy-291" cx="1546.25" cy="1436.25" rx="6.25" ry="6.25"></ellipse>
                <circle id="Oval-Copy-262" cx="1656.25" cy="666.25" r="6.25"></circle>
                <circle id="Oval-Copy-292" cx="1546.25" cy="666.25" r="6.25"></circle>
                <ellipse id="Oval-Copy-270" cx="1656.25" cy="1546.25" rx="6.25" ry="6.25"></ellipse>
                <ellipse id="Oval-Copy-293" cx="1546.25" cy="1546.25" rx="6.25" ry="6.25"></ellipse>
                <circle id="Oval-Copy-263" cx="1656.25" cy="776.25" r="6.25"></circle>
                <circle id="Oval-Copy-294" cx="1546.25" cy="776.25" r="6.25"></circle>
                <ellipse id="Oval-Copy-271" cx="1656.25" cy="1656.25" rx="6.25" ry="6.25"></ellipse>
                <ellipse id="Oval-Copy-295" cx="1546.25" cy="1656.25" rx="6.25" ry="6.25"></ellipse>
                <ellipse id="Oval-Copy-256" cx="116.25" cy="6.25" rx="6.25" ry="6.25"></ellipse>
                <ellipse id="Oval-Copy-273" cx="6.25" cy="6.25" rx="6.25" ry="6.25"></ellipse>
                <ellipse id="Oval-Copy-264" cx="116.25" cy="886.25" rx="6.25" ry="6.25"></ellipse>
                <ellipse id="Oval-Copy-274" cx="6.25" cy="886.25" rx="6.25" ry="6.25"></ellipse>
                <circle id="Oval-Copy-257" cx="116.25" cy="116.25" r="6.25"></circle>
                <circle id="Oval-Copy-280" cx="6.25" cy="116.25" r="6.25"></circle>
                <ellipse id="Oval-Copy-265" cx="116.25" cy="996.25" rx="6.25" ry="6.25"></ellipse>
                <ellipse id="Oval-Copy-281" cx="6.25" cy="996.25" rx="6.25" ry="6.25"></ellipse>
                <circle id="Oval-Copy-258" cx="116.25" cy="226.25" r="6.25"></circle>
                <circle id="Oval-Copy-282" cx="6.25" cy="226.25" r="6.25"></circle>
                <ellipse id="Oval-Copy-266" cx="116.25" cy="1106.25" rx="6.25" ry="6.25"></ellipse>
                <ellipse id="Oval-Copy-283" cx="6.25" cy="1106.25" rx="6.25" ry="6.25"></ellipse>
                <circle id="Oval-Copy-259" cx="116.25" cy="336.25" r="6.25"></circle>
                <circle id="Oval-Copy-284" cx="6.25" cy="336.25" r="6.25"></circle>
                <ellipse id="Oval-Copy-267" cx="116.25" cy="1216.25" rx="6.25" ry="6.25"></ellipse>
                <ellipse id="Oval-Copy-285" cx="6.25" cy="1216.25" rx="6.25" ry="6.25"></ellipse>
                <circle id="Oval-Copy-260" cx="116.25" cy="446.25" r="6.25"></circle>
                <circle id="Oval-Copy-288" cx="6.25" cy="446.25" r="6.25"></circle>
                <ellipse id="Oval-Copy-268" cx="116.25" cy="1326.25" rx="6.25" ry="6.25"></ellipse>
                <ellipse id="Oval-Copy-289" cx="6.25" cy="1326.25" rx="6.25" ry="6.25"></ellipse>
                <circle id="Oval-Copy-261" cx="116.25" cy="556.25" r="6.25"></circle>
                <circle id="Oval-Copy-290" cx="6.25" cy="556.25" r="6.25"></circle>
                <ellipse id="Oval-Copy-269" cx="116.25" cy="1436.25" rx="6.25" ry="6.25"></ellipse>
                <ellipse id="Oval-Copy-291" cx="6.25" cy="1436.25" rx="6.25" ry="6.25"></ellipse>
                <circle id="Oval-Copy-262" cx="116.25" cy="666.25" r="6.25"></circle>
                <circle id="Oval-Copy-292" cx="6.25" cy="666.25" r="6.25"></circle>
                <ellipse id="Oval-Copy-270" cx="116.25" cy="1546.25" rx="6.25" ry="6.25"></ellipse>
                <ellipse id="Oval-Copy-293" cx="6.25" cy="1546.25" rx="6.25" ry="6.25"></ellipse>
                <circle id="Oval-Copy-263" cx="116.25" cy="776.25" r="6.25"></circle>
                <circle id="Oval-Copy-294" cx="6.25" cy="776.25" r="6.25"></circle>
                <ellipse id="Oval-Copy-271" cx="116.25" cy="1656.25" rx="6.25" ry="6.25"></ellipse>
                <ellipse id="Oval-Copy-295" cx="6.25" cy="1656.25" rx="6.25" ry="6.25"></ellipse>
                <ellipse id="Oval-Copy-297" cx="1435.25" cy="6.25" rx="6.25" ry="6.25"></ellipse>
                <ellipse id="Oval-Copy-321" cx="1325.25" cy="6.25" rx="6.25" ry="6.25"></ellipse>
                <ellipse id="Oval-Copy-298" cx="1435.25" cy="886.25" rx="6.25" ry="6.25"></ellipse>
                <circle id="Oval-Copy-304" cx="1435.25" cy="116.25" r="6.25"></circle>
                <circle id="Oval-Copy-328" cx="1325.25" cy="116.25" r="6.25"></circle>
                <ellipse id="Oval-Copy-305" cx="1435.25" cy="996.25" rx="6.25" ry="6.25"></ellipse>
                <ellipse id="Oval-Copy-329" cx="1325.25" cy="996.25" rx="6.25" ry="6.25"></ellipse>
                <circle id="Oval-Copy-306" cx="1435.25" cy="226.25" r="6.25"></circle>
                <circle id="Oval-Copy-330" cx="1325.25" cy="226.25" r="6.25"></circle>
                <ellipse id="Oval-Copy-307" cx="1435.25" cy="1106.25" rx="6.25" ry="6.25"></ellipse>
                <ellipse id="Oval-Copy-331" cx="1325.25" cy="1106.25" rx="6.25" ry="6.25"></ellipse>
                <circle id="Oval-Copy-308" cx="1435.25" cy="336.25" r="6.25"></circle>
                <circle id="Oval-Copy-332" cx="1325.25" cy="336.25" r="6.25"></circle>
                <ellipse id="Oval-Copy-309" cx="1435.25" cy="1216.25" rx="6.25" ry="6.25"></ellipse>
                <ellipse id="Oval-Copy-333" cx="1325.25" cy="1216.25" rx="6.25" ry="6.25"></ellipse>
                <circle id="Oval-Copy-312" cx="1435.25" cy="446.25" r="6.25"></circle>
                <ellipse id="Oval-Copy-313" cx="1435.25" cy="1326.25" rx="6.25" ry="6.25"></ellipse>
                <ellipse id="Oval-Copy-337" cx="1325.25" cy="1326.25" rx="6.25" ry="6.25"></ellipse>
                <circle id="Oval-Copy-314" cx="1436.5" cy="556.5" r="12.5"></circle>
                <circle id="Oval-Copy-336" cx="1326.5" cy="446.5" r="12.5"></circle>
                <circle id="Oval-Copy-338" cx="1326" cy="556" r="25"></circle>
                <circle id="Oval-Copy-339" cx="1326" cy="666" r="25"></circle>
                <circle id="Oval-Copy-340" cx="1326" cy="776" r="25"></circle>
                <circle id="Oval-Copy-316" cx="1436.5" cy="666.5" r="12.5"></circle>
                <circle id="Oval-Copy-318" cx="1436.5" cy="776.5" r="12.5"></circle>
                <circle id="Oval-Copy-322" cx="1326.5" cy="886.5" r="12.5"></circle>
                <circle id="Oval-Copy-322" cx="1216.5" cy="996.5" r="12.5"></circle>
                <ellipse id="Oval-Copy-315" cx="1435.25" cy="1436.25" rx="6.25" ry="6.25"></ellipse>
                <ellipse id="Oval-Copy-341" cx="1325.25" cy="1436.25" rx="6.25" ry="6.25"></ellipse>
                <ellipse id="Oval-Copy-317" cx="1435.25" cy="1546.25" rx="6.25" ry="6.25"></ellipse>
                <ellipse id="Oval-Copy-342" cx="1325.25" cy="1546.25" rx="6.25" ry="6.25"></ellipse>
                <ellipse id="Oval-Copy-319" cx="1435.25" cy="1656.25" rx="6.25" ry="6.25"></ellipse>
                <ellipse id="Oval-Copy-343" cx="1325.25" cy="1656.25" rx="6.25" ry="6.25"></ellipse>
                <circle id="Oval-Copy-340" cx="1216" cy="886" r="25"></circle>
                <ellipse id="Oval-Copy-321" cx="1215.25" cy="6.25" rx="6.25" ry="6.25"></ellipse>
                <circle id="Oval-Copy-345" cx="1216" cy="446" r="25"></circle>
                <circle id="Oval-Copy-328" cx="1215.25" cy="116.25" r="6.25"></circle>
                <circle id="Oval-Copy-330" cx="1215.25" cy="226.25" r="6.25"></circle>
                <ellipse id="Oval-Copy-331" cx="1215.25" cy="1106.25" rx="6.25" ry="6.25"></ellipse>
                <ellipse id="Oval-Copy-333" cx="1215.25" cy="1216.25" rx="6.25" ry="6.25"></ellipse>
                <ellipse id="Oval-Copy-337" cx="1215.25" cy="1326.25" rx="6.25" ry="6.25"></ellipse>
                <circle id="Oval-Copy-344" cx="1216.5" cy="336.5" r="12.5"></circle>
                <circle id="Oval-Copy-338" cx="1216.5" cy="556.5" r="37.5"></circle>
                <circle id="Oval-Copy-338" cx="1216.5" cy="666.5" r="37.5"></circle>
                <circle id="Oval-Copy-338" cx="1216.5" cy="776.5" r="37.5"></circle>
                <ellipse id="Oval-Copy-341" cx="1215.25" cy="1436.25" rx="6.25" ry="6.25"></ellipse>
                <ellipse id="Oval-Copy-342" cx="1215.25" cy="1546.25" rx="6.25" ry="6.25"></ellipse>
                <ellipse id="Oval-Copy-343" cx="1215.25" cy="1656.25" rx="6.25" ry="6.25"></ellipse>
                <circle id="Oval-Copy-322" cx="1106.5" cy="1106.5" r="12.5"></circle>
                <circle id="Oval-Copy-322" cx="996.5" cy="1216.5" r="12.5"></circle>
                <circle id="Oval-Copy-340" cx="1106" cy="996" r="25"></circle>
                <circle id="Oval-Copy-340" cx="996" cy="1106" r="25"></circle>
                <ellipse id="Oval-Copy-321" cx="1105.25" cy="6.25" rx="6.25" ry="6.25"></ellipse>
                <circle id="Oval-Copy-345" cx="1106" cy="336" r="25"></circle>
                <circle id="Oval-Copy-137" cx="1106" cy="666" r="50"></circle>
                <circle id="Oval-Copy-328" cx="1105.25" cy="116.25" r="6.25"></circle>
                <ellipse id="Oval-Copy-333" cx="1105.25" cy="1216.25" rx="6.25" ry="6.25"></ellipse>
                <ellipse id="Oval-Copy-138" cx="1106" cy="556" rx="50" ry="50"></ellipse>
                <circle id="Oval-Copy-139" cx="1106" cy="776" r="50"></circle>
                <ellipse id="Oval-Copy-337" cx="1105.25" cy="1326.25" rx="6.25" ry="6.25"></ellipse>
                <circle id="Oval-Copy-344" cx="1106.5" cy="226.5" r="12.5"></circle>
                <circle id="Oval-Copy-338" cx="1106.5" cy="446.5" r="37.5"></circle>
                <circle id="Oval-Copy-338" cx="1106.5" cy="886.5" r="37.5"></circle>
                <ellipse id="Oval-Copy-341" cx="1105.25" cy="1436.25" rx="6.25" ry="6.25"></ellipse>
                <ellipse id="Oval-Copy-342" cx="1105.25" cy="1546.25" rx="6.25" ry="6.25"></ellipse>
                <ellipse id="Oval-Copy-343" cx="1105.25" cy="1656.25" rx="6.25" ry="6.25"></ellipse>
                <circle id="Oval-Copy-320" cx="996" cy="886" r="50"></circle>
                <ellipse id="Oval-Copy-321" cx="995.25" cy="6.25" rx="6.25" ry="6.25"></ellipse>
                <circle id="Oval-Copy-136" cx="996" cy="446" r="50"></circle>
                <circle id="Oval-Copy-345" cx="996" cy="226" r="25"></circle>
                <ellipse id="Oval-Copy-337" cx="995.25" cy="1326.25" rx="6.25" ry="6.25"></ellipse>
                <ellipse id="Oval-Copy-344" cx="996.5" cy="116.5" rx="12.5" ry="12.5"></ellipse>
                <circle id="Oval-Copy-338" cx="996.5" cy="336.5" r="37.5"></circle>
                <circle id="Oval-Copy-338" cx="996.5" cy="556.5" r="37.5"></circle>
                <circle id="Oval-Copy-338" cx="996.5" cy="666.5" r="37.5"></circle>
                <circle id="Oval-Copy-338" cx="996.5" cy="776.5" r="37.5"></circle>
                <ellipse id="Oval-Copy-338" cx="996.5" cy="996.5" rx="37.5" ry="37.5"></ellipse>
                <ellipse id="Oval-Copy-341" cx="995.25" cy="1436.25" rx="6.25" ry="6.25"></ellipse>
                <ellipse id="Oval-Copy-342" cx="995.25" cy="1546.25" rx="6.25" ry="6.25"></ellipse>
                <ellipse id="Oval-Copy-343" cx="995.25" cy="1656.25" rx="6.25" ry="6.25"></ellipse>
                <circle id="Oval-Copy-322" cx="886.5" cy="1216.5" r="12.5"></circle>
                <circle id="Oval-Copy-322" cx="886.5" cy="1326.5" r="12.5"></circle>
                <circle id="Oval-Copy-322" cx="886.5" cy="1436.5" r="12.5"></circle>
                <circle id="Oval-Copy-322" cx="886.5" cy="1546.5" r="12.5"></circle>
                <circle id="Oval-Copy-340" cx="886" cy="1106" r="25"></circle>
                <circle id="Oval-Copy-320" cx="886" cy="886" r="50"></circle>
                <ellipse id="Oval-Copy-321" cx="885.25" cy="6.25" rx="6.25" ry="6.25"></ellipse>
                <circle id="Oval-Copy-136" cx="886" cy="446" r="50"></circle>
                <circle id="Oval-Copy-345" cx="886" cy="226" r="25"></circle>
                <circle id="Oval-Copy-345" cx="886" cy="666" r="25"></circle>
                <ellipse id="Oval-Copy-344" cx="886.5" cy="116.5" rx="12.5" ry="12.5"></ellipse>
                <circle id="Oval-Copy-338" cx="886.5" cy="336.5" r="37.5"></circle>
                <circle id="Oval-Copy-338" cx="886.5" cy="556.5" r="37.5"></circle>
                <circle id="Oval-Copy-338" cx="886.5" cy="776.5" r="37.5"></circle>
                <ellipse id="Oval-Copy-338" cx="886.5" cy="996.5" rx="37.5" ry="37.5"></ellipse>
                <ellipse id="Oval-Copy-343" cx="885.25" cy="1656.25" rx="6.25" ry="6.25"></ellipse>
                <circle id="Oval-Copy-322" cx="776.5" cy="1546.5" r="12.5"></circle>
                <circle id="Oval-Copy-340" cx="776" cy="1106" r="25"></circle>
                <circle id="Oval-Copy-340" cx="776" cy="1216" r="25"></circle>
                <circle id="Oval-Copy-340" cx="776" cy="1326" r="25"></circle>
                <circle id="Oval-Copy-340" cx="776" cy="1436" r="25"></circle>
                <circle id="Oval-Copy-320" cx="776" cy="886" r="50"></circle>
                <ellipse id="Oval-Copy-321" cx="775.25" cy="6.25" rx="6.25" ry="6.25"></ellipse>
                <circle id="Oval-Copy-136" cx="776" cy="446" r="50"></circle>
                <circle id="Oval-Copy-345" cx="776" cy="226" r="25"></circle>
                <circle id="Oval-Copy-345" cx="776" cy="666" r="25"></circle>
                <ellipse id="Oval-Copy-344" cx="776.5" cy="116.5" rx="12.5" ry="12.5"></ellipse>
                <circle id="Oval-Copy-338" cx="776.5" cy="336.5" r="37.5"></circle>
                <circle id="Oval-Copy-338" cx="776.5" cy="556.5" r="37.5"></circle>
                <circle id="Oval-Copy-338" cx="776.5" cy="776.5" r="37.5"></circle>
                <ellipse id="Oval-Copy-338" cx="776.5" cy="996.5" rx="37.5" ry="37.5"></ellipse>
                <ellipse id="Oval-Copy-343" cx="775.25" cy="1656.25" rx="6.25" ry="6.25"></ellipse>
                <circle id="Oval-Copy-322" cx="666.5" cy="1546.5" r="12.5"></circle>
                <circle id="Oval-Copy-340" cx="666" cy="1436" r="25"></circle>
                <circle id="Oval-Copy-320" cx="666" cy="886" r="50"></circle>
                <ellipse id="Oval-Copy-321" cx="665.25" cy="6.25" rx="6.25" ry="6.25"></ellipse>
                <circle id="Oval-Copy-136" cx="666" cy="446" r="50"></circle>
                <circle id="Oval-Copy-345" cx="666" cy="226" r="25"></circle>
                <circle id="Oval-Copy-345" cx="666" cy="666" r="25"></circle>
                <ellipse id="Oval-Copy-344" cx="666.5" cy="116.5" rx="12.5" ry="12.5"></ellipse>
                <circle id="Oval-Copy-338" cx="666.5" cy="336.5" r="37.5"></circle>
                <circle id="Oval-Copy-338" cx="666.5" cy="556.5" r="37.5"></circle>
                <circle id="Oval-Copy-338" cx="666.5" cy="776.5" r="37.5"></circle>
                <ellipse id="Oval-Copy-338" cx="666.5" cy="996.5" rx="37.5" ry="37.5"></ellipse>
                <circle id="Oval-Copy-338" cx="666.5" cy="1106.5" r="37.5"></circle>
                <circle id="Oval-Copy-338" cx="666.5" cy="1216.5" r="37.5"></circle>
                <circle id="Oval-Copy-338" cx="666.5" cy="1326.5" r="37.5"></circle>
                <ellipse id="Oval-Copy-343" cx="665.25" cy="1656.25" rx="6.25" ry="6.25"></ellipse>
                <circle id="Oval-Copy-322" cx="555.5" cy="1546.5" r="12.5"></circle>
                <circle id="Oval-Copy-340" cx="556" cy="1436" r="25"></circle>
                <circle id="Oval-Copy-320" cx="556" cy="886" r="50"></circle>
                <ellipse id="Oval-Copy-320" cx="556" cy="996" rx="50" ry="50"></ellipse>
                <circle id="Oval-Copy-320" cx="556" cy="1106" r="50"></circle>
                <circle id="Oval-Copy-320" cx="556" cy="1216" r="50"></circle>
                <ellipse id="Oval-Copy-321" cx="555.25" cy="6.25" rx="6.25" ry="6.25"></ellipse>
                <circle id="Oval-Copy-136" cx="556" cy="446" r="50"></circle>
                <circle id="Oval-Copy-345" cx="556" cy="226" r="25"></circle>
                <circle id="Oval-Copy-345" cx="556" cy="666" r="25"></circle>
                <ellipse id="Oval-Copy-344" cx="555.5" cy="116.5" rx="12.5" ry="12.5"></ellipse>
                <circle id="Oval-Copy-338" cx="555.5" cy="336.5" r="37.5"></circle>
                <circle id="Oval-Copy-338" cx="555.5" cy="556.5" r="37.5"></circle>
                <circle id="Oval-Copy-338" cx="555.5" cy="776.5" r="37.5"></circle>
                <circle id="Oval-Copy-338" cx="555.5" cy="1326.5" r="37.5"></circle>
                <ellipse id="Oval-Copy-343" cx="555.25" cy="1656.25" rx="6.25" ry="6.25"></ellipse>
                <circle id="Oval-Copy-322" cx="445.5" cy="1546.5" r="12.5"></circle>
                <circle id="Oval-Copy-340" cx="446" cy="1436" r="25"></circle>
                <ellipse id="Oval-Copy-321" cx="445.25" cy="6.25" rx="6.25" ry="6.25"></ellipse>
                <circle id="Oval-Copy-345" cx="446" cy="226" r="25"></circle>
                <circle id="Oval-Copy-345" cx="446" cy="666" r="25"></circle>
                <ellipse id="Oval-Copy-344" cx="445.5" cy="116.5" rx="12.5" ry="12.5"></ellipse>
                <circle id="Oval-Copy-338" cx="445.5" cy="336.5" r="37.5"></circle>
                <circle id="Oval-Copy-338" cx="445.5" cy="446.5" r="37.5"></circle>
                <circle id="Oval-Copy-338" cx="445.5" cy="556.5" r="37.5"></circle>
                <circle id="Oval-Copy-338" cx="445.5" cy="776.5" r="37.5"></circle>
                <circle id="Oval-Copy-338" cx="445.5" cy="1326.5" r="37.5"></circle>
                <circle id="Oval-Copy-338" cx="445.5" cy="1216.5" r="37.5"></circle>
                <circle id="Oval-Copy-338" cx="445.5" cy="1106.5" r="37.5"></circle>
                <ellipse id="Oval-Copy-338" cx="445.5" cy="996.5" rx="37.5" ry="37.5"></ellipse>
                <circle id="Oval-Copy-338" cx="445.5" cy="886.5" r="37.5"></circle>
                <ellipse id="Oval-Copy-343" cx="445.25" cy="1656.25" rx="6.25" ry="6.25"></ellipse>
                <circle id="Oval-Copy-322" cx="335.5" cy="1546.5" r="12.5"></circle>
                <circle id="Oval-Copy-340" cx="336" cy="1436" r="25"></circle>
                <ellipse id="Oval-Copy-321" cx="335.25" cy="6.25" rx="6.25" ry="6.25"></ellipse>
                <circle id="Oval-Copy-345" cx="336" cy="226" r="25"></circle>
                <circle id="Oval-Copy-345" cx="336" cy="336" r="25"></circle>
                <circle id="Oval-Copy-345" cx="336" cy="446" r="25"></circle>
                <circle id="Oval-Copy-345" cx="336" cy="556" r="25"></circle>
                <circle id="Oval-Copy-345" cx="336" cy="666" r="25"></circle>
                <circle id="Oval-Copy-345" cx="336" cy="776" r="25"></circle>
                <circle id="Oval-Copy-345" cx="336" cy="886" r="25"></circle>
                <circle id="Oval-Copy-345" cx="336" cy="996" r="25"></circle>
                <circle id="Oval-Copy-345" cx="336" cy="1106" r="25"></circle>
                <circle id="Oval-Copy-345" cx="336" cy="1216" r="25"></circle>
                <circle id="Oval-Copy-345" cx="336" cy="1326" r="25"></circle>
                <ellipse id="Oval-Copy-344" cx="335.5" cy="116.5" rx="12.5" ry="12.5"></ellipse>
                <ellipse id="Oval-Copy-343" cx="335.25" cy="1656.25" rx="6.25" ry="6.25"></ellipse>
                <circle id="Oval-Copy-322" cx="225.5" cy="1546.5" r="12.5"></circle>
                <ellipse id="Oval-Copy-321" cx="225.25" cy="6.25" rx="6.25" ry="6.25"></ellipse>
                <ellipse id="Oval-Copy-344" cx="225.5" cy="116.5" rx="12.5" ry="12.5"></ellipse>
                <circle id="Oval-Copy-344" cx="225.5" cy="226.5" r="12.5"></circle>
                <circle id="Oval-Copy-344" cx="225.5" cy="336.5" r="12.5"></circle>
                <circle id="Oval-Copy-344" cx="225.5" cy="446.5" r="12.5"></circle>
                <circle id="Oval-Copy-344" cx="225.5" cy="556.5" r="12.5"></circle>
                <circle id="Oval-Copy-344" cx="225.5" cy="666.5" r="12.5"></circle>
                <circle id="Oval-Copy-344" cx="225.5" cy="776.5" r="12.5"></circle>
                <circle id="Oval-Copy-344" cx="225.5" cy="886.5" r="12.5"></circle>
                <circle id="Oval-Copy-344" cx="225.5" cy="996.5" r="12.5"></circle>
                <circle id="Oval-Copy-344" cx="225.5" cy="1106.5" r="12.5"></circle>
                <circle id="Oval-Copy-344" cx="225.5" cy="1216.5" r="12.5"></circle>
                <circle id="Oval-Copy-344" cx="225.5" cy="1326.5" r="12.5"></circle>
                <circle id="Oval-Copy-344" cx="225.5" cy="1436.5" r="12.5"></circle>
                <ellipse id="Oval-Copy-343" cx="225.25" cy="1656.25" rx="6.25" ry="6.25"></ellipse>
            </g>
            <path d="M0,2483.04307 L41.476804,2483.04307 L41.476804,2322.75983 C54.1307442,2325.57181 90.6865715,2331.89878 125.836405,2331.89878 C234.800891,2331.89878 277.683688,2279.87703 277.683688,2144.19867 C277.683688,2021.87725 240.424864,1966.34051 152.550279,1966.34051 C96.3105449,1966.34051 41.476804,2000.08435 41.476804,2000.08435 L41.476804,1973.37048 L0,1973.37048 L0,2483.04307 Z M148.332299,2004.30233 C203.16604,2004.30233 234.097894,2041.56116 234.097894,2144.19867 C234.097894,2252.46016 205.978027,2294.63996 124.430412,2294.63996 C90.6865715,2294.63996 53.4277475,2288.31299 41.476804,2286.204 L41.476804,2035.93718 C41.476804,2035.93718 95.6075482,2004.30233 148.332299,2004.30233 L148.332299,2004.30233 Z M502.218591,2293.93696 C428.40394,2293.93696 404.502053,2249.64817 404.502053,2166.69456 L643.520924,2166.69456 L644.926917,2132.95072 C644.926917,2014.84728 597.123143,1966.34051 506.436571,1966.34051 C420.670977,1966.34051 361.619256,2014.84728 361.619256,2150.52564 C361.619256,2267.92609 393.254106,2331.19579 498.000611,2331.89878 C552.834352,2331.89878 632.272977,2322.05683 632.272977,2322.05683 L630.866984,2287.60999 C630.866984,2287.60999 553.537349,2293.93696 502.218591,2293.93696 L502.218591,2293.93696 Z M404.502053,2131.54473 C404.502053,2038.04617 442.463874,2002.89634 506.436571,2002.89634 C572.518259,2002.89634 602.747116,2036.64018 602.747116,2131.54473 L404.502053,2131.54473 Z M782.290233,2324.86882 L782.290233,2033.82819 C782.290233,2033.82819 835.71798,2004.30233 890.551721,2004.30233 C960.851389,2004.30233 972.099336,2038.74917 972.099336,2142.08968 L972.099336,2324.86882 L1014.27914,2324.86882 L1014.27914,2139.98069 C1014.27914,2011.3323 993.189236,1966.34051 896.878691,1966.34051 C841.341953,1966.34051 782.290233,1999.38136 782.290233,1999.38136 L782.290233,1973.37048 L740.813429,1973.37048 L740.813429,2324.86882 L782.290233,2324.86882 Z M1299.97475,2010.6293 L1299.97475,1973.37048 L1182.57431,1973.37048 L1182.57431,1863 L1140.3945,1863 L1140.3945,1973.37048 L1088.37275,1973.37048 L1088.37275,2010.6293 L1140.3945,2010.6293 L1140.3945,2205.35938 C1140.3945,2306.5909 1165.70239,2332.60178 1235.29906,2332.60178 C1259.90394,2332.60178 1306.30172,2325.57181 1306.30172,2325.57181 L1303.48973,2289.71898 C1303.48973,2289.71898 1258.49795,2294.63996 1238.81404,2294.63996 C1188.19828,2294.63996 1182.57431,2272.14407 1182.57431,2184.26948 L1182.57431,2010.6293 L1299.97475,2010.6293 Z M1617.30522,2078.11698 C1617.30522,2003.59934 1584.96737,1966.34051 1508.34073,1966.34051 C1449.28901,1966.34051 1371.95938,1981.10344 1371.95938,1981.10344 L1374.06837,2014.84728 C1374.06837,2014.84728 1456.31898,2004.30233 1506.93474,2004.30233 C1551.92652,2004.30233 1575.82841,2024.68924 1575.82841,2078.11698 L1575.82841,2111.15783 L1456.31898,2123.10877 C1385.31631,2130.13874 1352.97846,2161.07059 1352.97846,2225.74629 C1352.97846,2296.04595 1387.4253,2331.89878 1449.28901,2331.89878 C1515.3707,2331.89878 1581.45239,2303.07592 1581.45239,2303.07592 C1600.4333,2324.16582 1626.44417,2331.19579 1660.89101,2331.19579 L1663,2297.45195 C1639.80111,2294.63996 1619.41421,2287.60999 1617.30522,2266.52009 L1617.30522,2078.11698 Z M1575.82841,2144.19867 L1575.82841,2271.44107 C1575.82841,2271.44107 1511.85571,2296.04595 1454.91298,2296.04595 C1416.24817,2296.04595 1396.56426,2270.03508 1396.56426,2225.04329 C1396.56426,2182.86349 1414.13918,2160.36759 1461.23995,2156.14961 L1575.82841,2144.19867 Z" id="penta-copy" fill="#173753"></path>
        </g>
    </g>
</svg>